<?xml version="1.0" encoding="UTF-8" standalone="no"?>
<!DOCTYPE svg PUBLIC "-//W3C//DTD SVG 1.1//EN" "http://www.w3.org/Graphics/SVG/1.1/DTD/svg11.dtd">
<svg width="100%" height="100%" viewBox="0 0 1080 1080" version="1.1" xmlns="http://www.w3.org/2000/svg" xmlns:xlink="http://www.w3.org/1999/xlink" xml:space="preserve" xmlns:serif="http://www.serif.com/" style="fill-rule:evenodd;clip-rule:evenodd;stroke-linecap:round;stroke-linejoin:round;stroke-miterlimit:1.5;">
    <g transform="matrix(22.9255,0,0,23.0119,-10888,-10117.4)">
        <g>
            <g transform="matrix(0.867219,0,0,0.867219,64.7467,60.2745)">
                <path d="M487.621,462.926C487.621,461.871 487.941,460.713 488.581,459.451C489.222,458.189 490.158,457.148 491.388,456.328C492.619,455.508 494.007,455.098 495.554,455.098C497.718,455.098 499.505,455.871 500.915,457.418C502.326,458.965 503.031,460.73 503.031,462.715C503.031,464.824 502.249,466.717 500.687,468.392C499.124,470.068 497.246,470.906 495.05,470.906C492.949,470.906 491.185,470.172 489.759,468.703C488.333,467.234 487.621,465.308 487.621,462.926ZM490.234,462.544C490.234,463.819 490.429,465.127 490.819,466.467C491.209,467.808 491.822,468.782 492.657,469.388C493.492,469.994 494.385,470.297 495.337,470.297C496.875,470.297 498.106,469.548 499.03,468.051C499.955,466.553 500.417,464.82 500.417,462.849C500.417,460.942 499.945,459.266 499.001,457.824C498.057,456.381 496.824,455.66 495.302,455.66C494.155,455.66 493.199,456.045 492.434,456.815C491.67,457.585 491.112,458.506 490.76,459.577C490.409,460.648 490.234,461.637 490.234,462.544Z" style="fill:#fff;fill-rule:nonzero;"/>
            </g>
            <g transform="matrix(1.11521,0,0,1.0488,-57.898,-23.4894)">
                <path d="M496.399,462.878C497.156,462.371 497.754,461.888 498.192,461.431C498.629,460.974 499.315,460.242 500.248,459.234C501.182,458.226 501.74,457.556 501.924,457.224C502.108,456.892 502.199,456.652 502.199,456.503C502.199,456.324 502.096,456.162 501.889,456.017C501.682,455.873 501.438,455.777 501.156,455.73C500.844,455.683 500.688,455.593 500.688,455.46C500.688,455.32 500.817,455.249 501.074,455.249C501.129,455.249 501.215,455.246 501.332,455.238C501.621,455.222 502.488,455.214 503.934,455.214C504.926,455.214 505.617,455.224 506.008,455.244C506.399,455.263 506.594,455.335 506.594,455.46C506.594,455.593 506.485,455.675 506.266,455.706C505.539,455.808 504.908,456.005 504.373,456.298C503.838,456.591 503.008,457.279 501.883,458.361C500.758,459.443 499.789,460.492 498.977,461.507C499.881,461.507 500.641,461.634 501.256,461.889C501.872,462.143 502.385,462.581 502.794,463.203C503.203,463.825 503.556,464.879 503.852,466.365C504.369,468.861 505.294,470.163 506.627,470.273C506.925,470.296 507.074,470.376 507.074,470.513C507.074,470.627 507.004,470.684 506.863,470.684L505.785,470.661C504.192,470.661 503.278,470.676 503.043,470.706C502.66,470.199 502.412,469.699 502.299,469.206C502.186,468.714 502.031,467.851 501.836,466.617C501.664,465.539 501.381,464.542 500.987,463.628C500.592,462.714 499.977,462.257 499.141,462.257C498.586,462.257 498.012,462.439 497.418,462.802C496.824,463.165 496.481,463.435 496.387,463.611C496.293,463.787 496.246,464.82 496.246,466.71C496.246,468.039 496.287,468.859 496.369,469.171C496.451,469.484 496.631,469.73 496.908,469.91C497.186,470.089 497.559,470.203 498.028,470.249C498.309,470.281 498.449,470.367 498.449,470.507C498.449,470.64 498.352,470.706 498.156,470.706L498.016,470.699C497.797,470.688 497,470.683 495.625,470.683C493.969,470.683 493.031,470.699 492.813,470.73C492.703,470.746 492.621,470.753 492.567,470.753C492.387,470.753 492.297,470.683 492.297,470.542C492.297,470.417 492.406,470.339 492.625,470.308C493.039,470.253 493.35,470.138 493.557,469.962C493.764,469.787 493.897,469.583 493.955,469.353C494.014,469.123 494.092,468.351 494.19,467.039C494.287,465.726 494.336,464.632 494.336,463.757C494.336,462.601 494.324,461.621 494.301,460.816C494.278,460.011 494.231,459.134 494.16,458.185C494.09,457.236 494.012,456.665 493.926,456.474C493.84,456.283 493.719,456.134 493.563,456.029C493.406,455.923 493.039,455.835 492.461,455.765C492.266,455.742 492.168,455.671 492.168,455.554C492.168,455.382 492.348,455.296 492.707,455.296L493.656,455.285L497.817,455.238C498.028,455.238 498.133,455.303 498.133,455.433C498.133,455.509 498.098,455.564 498.028,455.598C497.957,455.633 497.742,455.673 497.383,455.718C497.016,455.765 496.785,455.81 496.692,455.853C496.598,455.896 496.504,455.998 496.41,456.158C496.317,456.318 496.27,456.581 496.27,456.949C496.27,457.831 496.313,459.808 496.399,462.878Z" style="fill:#fff;fill-rule:nonzero;"/>
            </g>
            <g transform="matrix(0.07809,0,0,0.104179,461.46,405.433)">
                <path d="M631.047,448.268L486.375,720.235L252.889,524.602L318.801,448.268L631.047,448.268Z" style="fill:#fff;fill-opacity:0;stroke:#fff;stroke-width:16.63px;"/>
            </g>
        </g>
    </g>
</svg>
